# Blender v2.75 (sub 0) OBJ File: 'estante.blend'
# www.blender.org
mtllib estante.mtl
o Cube.002
v 4.947408 5.347227 -4.446849
v -4.877348 5.347227 -4.454256
v -4.877001 5.347226 -4.914396
v 4.947405 15.171987 -4.446846
v 4.947755 15.171987 -4.906989
v -4.877000 15.171987 -4.914394
v -4.877352 15.171987 -4.454255
v 4.947757 5.347226 -4.906989
v 4.940275 5.347224 5.014498
v -4.884482 5.347224 5.007091
v -4.884134 5.347224 4.546950
v 4.940272 15.171985 5.014499
v 4.940621 15.171985 4.554359
v -4.884133 15.171985 4.546951
v -4.884486 15.171985 5.007092
v 4.940624 5.347224 4.554357
v 4.979867 5.418613 -4.863557
v 4.525056 5.418613 -4.863900
v 4.525038 15.126029 -4.838806
v 4.972433 15.100598 4.998224
v 4.517622 15.100600 4.997882
v 4.517641 5.393186 4.972787
v 4.972452 5.393180 4.973130
v 4.979848 15.126026 -4.838463
v 4.946759 5.365492 -3.586241
v -4.877998 5.365492 -3.593648
v -4.877333 5.365493 -4.473730
v 4.946756 5.882140 -3.586241
v 4.947423 5.882140 -4.466322
v -4.877332 5.882140 -4.473730
v -4.878002 5.882140 -3.593648
v 4.947424 5.365493 -4.466322
v -4.884190 5.365491 4.620644
v -4.883526 5.365491 3.740562
v 4.941232 5.365491 3.747970
v 4.940564 5.882138 4.628052
v 4.941229 5.882139 3.747970
v -4.883525 5.882139 3.740562
v -4.884194 5.882138 4.620644
v 4.940566 5.365491 4.628051
vn -0.000000 -1.000000 0.000000
vn 0.000000 1.000000 0.000000
vn -0.000800 -0.000000 1.000000
vn -1.000000 0.000000 -0.000800
vn 0.000800 0.000000 -1.000000
vn 1.000000 0.000000 0.000800
vn 0.000800 0.002600 -1.000000
vn -0.000800 -0.002600 1.000000
vn -0.000000 -1.000000 -0.002600
vn 0.000000 1.000000 0.002600
usemtl Material.001
s 1
f 1//1 2//1 3//1
f 4//2 5//2 6//2
f 4//3 7//3 2//3
f 2//4 7//4 6//4
f 6//5 5//5 8//5
f 1//6 8//6 5//6
f 9//1 10//1 11//1
f 12//2 13//2 14//2
f 12//3 15//3 10//3
f 15//4 14//4 11//4
f 14//5 13//5 16//5
f 9//6 16//6 13//6
f 17//7 18//7 19//7
f 20//8 21//8 22//8
f 23//9 22//9 18//9
f 22//4 21//4 19//4
f 21//10 20//10 24//10
f 17//6 24//6 20//6
f 25//1 26//1 27//1
f 28//2 29//2 30//2
f 28//3 31//3 26//3
f 31//4 30//4 27//4
f 30//5 29//5 32//5
f 25//6 32//6 29//6
f 33//1 34//1 35//1
f 36//2 37//2 38//2
f 36//3 39//3 33//3
f 39//4 38//4 34//4
f 38//5 37//5 35//5
f 40//6 35//6 37//6
f 8//1 1//1 3//1
f 7//2 4//2 6//2
f 1//3 4//3 2//3
f 3//4 2//4 6//4
f 3//5 6//5 8//5
f 4//6 1//6 5//6
f 16//1 9//1 11//1
f 15//2 12//2 14//2
f 9//3 12//3 10//3
f 10//4 15//4 11//4
f 11//5 14//5 16//5
f 12//6 9//6 13//6
f 24//7 17//7 19//7
f 23//8 20//8 22//8
f 17//9 23//9 18//9
f 18//4 22//4 19//4
f 19//10 21//10 24//10
f 23//6 17//6 20//6
f 32//1 25//1 27//1
f 31//2 28//2 30//2
f 25//3 28//3 26//3
f 26//4 31//4 27//4
f 27//5 30//5 32//5
f 28//6 25//6 29//6
f 40//1 33//1 35//1
f 39//2 36//2 38//2
f 40//3 36//3 33//3
f 33//4 39//4 34//4
f 34//5 38//5 35//5
f 36//6 40//6 37//6
