# Blender v2.75 (sub 0) OBJ File: 'pared.blend'
# www.blender.org
mtllib pared.mtl
o Cube
v 5.169945 -0.159864 -5.169944
v 5.169945 -0.159864 5.169945
v -5.169945 -0.159864 5.169944
v -5.169943 -0.159864 -5.169947
v 5.169947 10.180025 -5.169942
v 5.169941 10.180025 5.169948
v -5.169947 10.180025 5.169943
v -5.169944 10.180025 -5.169945
vn 0.000000 -1.000000 0.000000
vn 0.000000 1.000000 0.000000
vn 1.000000 0.000000 0.000000
vn -0.000000 0.000000 1.000000
vn -1.000000 -0.000000 -0.000000
vn 0.000000 0.000000 -1.000000
usemtl Material
s off
f 2//1 3//1 4//1
f 8//2 7//2 6//2
f 5//3 6//3 2//3
f 6//4 7//4 3//4
f 3//5 7//5 8//5
f 1//6 4//6 8//6
f 1//1 2//1 4//1
f 5//2 8//2 6//2
f 1//3 5//3 2//3
f 2//4 6//4 3//4
f 4//5 3//5 8//5
f 5//6 1//6 8//6
